<svg xmlns="http://www.w3.org/2000/svg" width="225.51" height="226.6" viewBox="0 0 225.51 226.6">
  <defs>
    <style>
      .cls-1, .cls-2 {
        fill: #ff4c00;
      }

      .cls-2 {
        fill-opacity: 0;
      }

      .cls-3 {
        fill: #fff;
      }
    </style>
  </defs>
  <g id="Layer_2" data-name="Layer 2">
    <g id="eb698ise38u1">
      <g id="eb698ise38u2">
        <g id="eb698ise38u3">
          <circle id="eb698ise38u19" class="cls-1" cx="112.7" cy="112.7" r="98.4"/>
          <circle id="eb698ise38u20" class="cls-2" cx="112.7" cy="112.7" r="112.7"/>
          <circle id="eb698ise38u21" class="cls-2" cx="112.81" cy="112.7" r="112.7"/>
          <circle id="eb698ise38u22" class="cls-2" cx="112.81" cy="113.9" r="112.7"/>
          <g id="eb698ise38u23">
            <g id="eb698ise38u24">
              <path id="eb698ise38u25" class="cls-3" d="M93,130.64a8.38,8.38,0,0,1-7.2-7.2V97.34h-1.5a4.91,4.91,0,0,0-4.9,4.9V146l9.4-9.3h34.5a4.91,4.91,0,0,0,4.9-4.9v-1.1H93Z"/>
              <path id="eb698ise38u26" class="cls-3" d="M140.45,79.44H95.75a5.59,5.59,0,0,0-5.6,5.6v36.2a5.59,5.59,0,0,0,5.6,5.6H134l12.1,8.5V85A5.59,5.59,0,0,0,140.45,79.44Z"/>
            </g>
          </g>
        </g>
      </g>
    </g>
  </g>
</svg>
