<svg xmlns="http://www.w3.org/2000/svg" width="282" height="242" fill="none" viewBox="0 0 282 242">
    <g clip-path="url(#prefix__clip0)">
        <path stroke="#fff" stroke-linecap="round" stroke-width="2" d="M95 167h46M95 184h47M95 200h54"/>
        <path stroke="#fff" stroke-linecap="round" stroke-width="3" d="M203 77H54c13.513 0 18.694 13.051 19.595 19.576v158.638c0 24.302 18.468 28.577 27.702 27.677H203c14.359 0 26-11.641 26-26V103c0-14.36-11.641-26-26-26z"/>
        <path fill="#004271" d="M37.183 102.368c-.91-9.122 1.039-26.868 16.316-26.868 15.276 0 18.954 17.746 18.5 26.868l-.716 155.316C70.828 266.123 75.237 283 96.517 283c21.278 0 25.688-16.877 25.234-25.316h127.534c2.274 8.439.41 25.316-25.234 25.316H96.517c-21.279 0-25.69-16.877-25.234-25.316l.716-155.316H37.183zM179 98c0-.552.448-1 1-1h48c.552 0 1 .448 1 1v48.31c0 .76-.815 1.242-1.481.876l-23.038-12.652c-.299-.165-.663-.165-.962 0l-23.038 12.652c-.666.366-1.481-.116-1.481-.876V98z"/>
        <path fill="#FB6D51" stroke="#fff" stroke-width="3" d="M240.5 77.5c0 18.72-15.835 34-35.5 34s-35.5-15.28-35.5-34 15.835-34 35.5-34 35.5 15.28 35.5 34z"/>
        <rect width="48" height="17" x="92" y="133" stroke="#fff" stroke-width="2" rx="4"/>
        <path fill="#FEFEFE" d="M205.051 61.847c.304-.912 1.594-.912 1.898 0l3.313 9.943c.136.409.519.684.949.684h10.668c.975 0 1.374 1.253.579 1.816l-8.587 6.083c-.36.255-.51.714-.371 1.132l3.29 9.873c.306.917-.738 1.69-1.527 1.132l-8.685-6.152c-.346-.246-.81-.246-1.156 0l-8.685 6.152c-.789.559-1.833-.215-1.527-1.132l3.29-9.873c.139-.418-.011-.877-.371-1.132l-8.587-6.083c-.795-.563-.396-1.816.579-1.816h10.668c.43 0 .813-.275.949-.684l3.313-9.943z"/>
    </g>
    <defs>
        <clipPath id="prefix__clip0">
            <path fill="#fff" d="M0 0H282V242H0z"/>
        </clipPath>
    </defs>
</svg>
