<svg xmlns="http://www.w3.org/2000/svg" width="357" height="242" fill="none" viewBox="0 0 357 242">
    <g clip-path="url(#prefix__clip0)">
        <path stroke="#fff" stroke-width="1.3" d="M358.836 9v34.637H235.529M325.586 45.023V79.66H202.279M290.949 79.66v37.407l-126.078-.692M257.699 117.068v33.251H127.465M221.676 150.319v37.408H94.212"/>
        <path stroke="#fff" stroke-width="1.3" d="M185.652 187.726v31.866H56.803M149.633 220.979v36.022H.002"/>
        <path stroke="#fff" stroke-width="1.3" d="M396.246 9H236.081v35.083h-33.467v36.293h-37.053v36.292h-33.468v33.873H96.235v37.503H61.573v32.663H26.91V257H0"/>
        <path fill="#FFDEBF" fill-rule="evenodd" d="M107.679 87.598c2.531 1.486 5.017 2.205 6.184 1.911 2.927-.735 3.197-11.175.932-15.29-2.265-4.116-13.91-5.91-14.497 2.245-.203 2.83 1.016 5.356 2.818 7.417l-3.23 14.673h9.382l-1.589-10.956z" clip-rule="evenodd"/>
        <path fill="#494F95" fill-rule="evenodd" d="M108.771 69.114c-1.229-.18-4.54-.305-5.151-.305-.39 0-.813.08-1.044-.242-.19-.264-.12-.71-.177-1.015-.065-.356-.158-.707-.253-1.056-.268-.996-.673-1.943-1.241-2.832-1.064-1.669-2.624-2.976-4.593-3.736-2.174-.84-4.634-1.032-6.973-.862-2.502.182-4.768.925-7.13 1.623-2.253.666-4.611.928-6.966.603-2.373-.328-4.166-1.483-6.167-2.58-2.05-1.122-4.39-1.857-6.813-1.688-2.261.158-4.345.996-6.215 2.117-1.749 1.048-3.192 2.31-4.007 4.084-.877 1.91-.876 4.006.566 5.693 2.09 2.446 5.968 3.078 9.196 3.016 1.866-.037 3.7-.343 5.462-.9 2.35-.742 4.381-2.001 6.58-3.022 1.032-.48 2.099-.873 3.217-1.157 1.085-.275 2.153-.401 3.136.188 1.039.622 1.97 1.234 3.159 1.624 1.14.374 2.348.583 3.563.575 2.364-.016 4.694-.678 6.99-1.121 1.873-.362 3.876-.722 5.785-.374.796.144 1.96.444 2.248 1.187-4.842.789-6.744 6.168-5.38 10.118.738 2.131 5.166 4.623 6.888 3.502 1.091-.71.429-1.642 0-2.257-.821-1.178-1.102-2.692.417-3.512 1.31-.707 2.688.973 2.714.97.36-.025 3.471-1.605 5.615-3.912 2.114.112 2.435-1.14 1.93-2.165-.505-1.024-3.656-2.313-5.356-2.564z" clip-rule="evenodd"/>
        <path fill="#FFDEBF" fill-rule="evenodd" d="M92.948 130.446c.697 9.355 45.606 36.897 45.868 37.67.175.515-13.978 32.571-13.978 32.571l3.925 1.5s21.708-33.949 20.593-37.567c-1.596-5.179-34.843-34.075-34.843-34.075l-21.565-.099z" clip-rule="evenodd"/>
        <path fill="#494F95" fill-rule="evenodd" d="M125.87 195.863l6.409 2.294c13.515-14.994 18.812-27.365 17.846-33.668-.966-6.303-34.723-34.018-34.723-34.018H92.488c.781 21.665 42.406 37.73 42.963 38.653.557.923-4.923 9.965-9.581 26.739z" clip-rule="evenodd"/>
        <path fill="#E4E4E4" fill-rule="evenodd" d="M125.543 200.767c-.924-.701-2.279-.718-2.968.224-.299.409-.562.82-.679 1.137-.358.967-.716 2.937-.716 2.937l20.49 7.334s1.76-2.311.116-3.134c-1.645-.823-2.721-1.397-2.721-1.397l-7.529-7.155c-.404-.384-1.049-.362-1.432.05l-.724.78s-1.864.161-2.86-.196c-.294-.105-.638-.324-.977-.58z" clip-rule="evenodd"/>
        <path fill="#FFDEBF" fill-rule="evenodd" d="M97.59 131.128l-19.876 47.471-19.534 40.133h4.609l50.424-87.604H97.59z" clip-rule="evenodd"/>
        <path fill="#E4E4E4" fill-rule="evenodd" d="M61.648 214.972c-1.197-.369-2.59.085-2.885 1.303-.125.516-.216 1.016-.216 1.377 0 1.139.332 3.324.332 3.324h20.77s.809-3.061-.936-3.305c-1.744-.244-2.898-.441-2.898-.441l-8.989-4.583c-.536-.273-1.19-.014-1.394.552l-.38 1.055s-1.616.862-2.625.862c-.224 0-.494-.057-.779-.144z" clip-rule="evenodd"/>
        <path fill="#5C63AB" fill-rule="evenodd" d="M59.305 208.993l10.26 1.877c7.933-11.377 41.133-58.026 44.773-79.742H91.497c-12.156 15.699-24.63 66.3-32.192 77.865z" clip-rule="evenodd"/>
        <path fill="#FFDEBF" fill-rule="evenodd" d="M146.673 113.453l-14.091 6.086 4.499 5.669 10.554-7.958c5.271-.952 7.715-1.77 7.333-2.454-.322-.577-.921-.609-1.473-.639-.43-.024-.831-.045-1.051-.321-.5-.631.735-2.58 1.988-4.38 1.253-1.8.079-1.735-.608-1.52-2.299 1.259-4.683 3.097-7.151 5.517zm-63.088 9.317l-7.97-1.555c-5.403 14.01-8.625 21.688-9.665 23.032-.762.986-5.464 3.526-8.646 4.883-1.277.544-1.003 1.606-.628 1.946 2.363 2.142 4.56 1.391 6.95.574.693-.237 1.402-.479 2.135-.658 1.9-.464 2.477.496 3.023 1.404.484.803.942 1.566 2.27 1.261-.06-.256-.134-.543-.214-.853-.518-2.005-1.282-4.961-.149-6.678.582-.881 4.88-8.667 12.894-23.356z" clip-rule="evenodd"/>
        <path fill="#DB2721" fill-rule="evenodd" d="M105.245 91.893l3.362-.568c7.325 6.988 10.313 23.776 15.194 25.999 4.615 2.101 11.157.067 18.933-2.678l2.382 5.233c-7.066 7.518-22.117 13.87-28.219 10.244-9.754-5.797-12.006-26.503-11.652-38.23z" clip-rule="evenodd"/>
        <path fill="#DDE3E9" fill-rule="evenodd" d="M90.75 133.373h29.277c1.338 0 1.085-1.939.892-2.918-2.232-11.297-10.944-23.474-10.944-39.554l-8.445-1.33c-6.985 11.281-9.4 25.169-10.78 43.802z" clip-rule="evenodd"/>
        <path fill="#FF4133" fill-rule="evenodd" d="M102.536 89.855h-1.549c-19.25 11.667-30.884 29.753-34.901 54.257l6.237 1.201c4.13-4.732 9.225-12.475 15.288-23.23-1.86 6.479-3.217 13.123-3.64 19.406h26.783c5.184-12.887-6.373-51.634-6.373-51.634h-1.845z" clip-rule="evenodd"/>
    </g>
    <defs>
        <clipPath id="prefix__clip0">
            <path fill="#fff" d="M0 0H357V242H0z"/>
        </clipPath>
    </defs>
</svg>
