<svg xmlns="http://www.w3.org/2000/svg" width="383" height="243" fill="none" viewBox="0 0 383 243">
    <g clip-path="url(#prefix__clip0)">
        <path fill="#191847" fill-rule="evenodd" d="M67.418 167.774l17.113 60.503 12.486 44.594h9.106L92.856 167.774H67.418z" clip-rule="evenodd"/>
        <path fill="#2F3676" fill-rule="evenodd" d="M62.841 167.774c-.395 31.184-1.745 48.193-2.16 51.026-.416 2.833-6.7 20.857-18.853 54.071h9.434c15.471-31.863 24.107-49.887 25.91-54.071 1.8-4.184 7.36-21.193 15.735-51.026H62.841z" clip-rule="evenodd"/>
        <path fill="#B28B67" fill-rule="evenodd" d="M91.034 94.56c3.12 1.804 6.187 2.676 7.626 2.32 3.61-.892 3.942-13.555 1.149-18.547-2.793-4.993-17.15-7.169-17.874 2.722-.252 3.433 1.252 6.497 3.473 8.997l-3.982 17.798h11.567l-1.959-13.29z" clip-rule="evenodd"/>
        <path fill="#191847" fill-rule="evenodd" d="M91.61 82.15c1.001-1.43 1.962-2.52 3.212-3.153 5.085.077 5.68-.797 5.68-3.743-.821-.564-3.72-1.513-6.965-1.78-1.655-.454-3.617-.369-5.506.389-2.332.635-4.307 2.001-5.18 4.56-3.156 5.223-.76 10.66 2.468 12.517.86-.976 1.61-1.922 2.278-2.828-.537-.503-.87-1.206-.87-1.984 0-1.531 1.294-2.773 2.891-2.773.117 0 .233.007.346.02.072 1.916.368 8.393 1.144 10.643.916 2.653 6.26 3.304 8.125 3.304 1.61 0 1.555-1.462 1.515-2.51-.005-.15-.011-.293-.011-.42 0-.269-.363-.268-.773-.267-.532 0-1.144.002-1.144-.584 0-.639.92-1.129 1.744-1.567.514-.274.99-.527 1.182-.784.604-.811.807-1.905-.104-1.905-.499 0-1.182.275-2.004.607-1.242.5-2.8 1.128-4.514 1.128-2.818 0-3.499-8.676-3.514-8.87z" clip-rule="evenodd"/>
        <path fill="#B28B67" fill-rule="evenodd" d="M143.455 107.946l-20.808 3.177 3.907 9.194 16.806-6.939c7.307.588 10.832.356 10.573-.696-.218-.887-.999-1.143-1.717-1.378-.56-.184-1.082-.355-1.273-.803-.434-1.023 1.899-3.199 4.202-5.169 2.303-1.971.728-2.299-.258-2.254-3.49.875-7.301 2.497-11.432 4.868zm-12.434 52.746l-15.072-14.678-5.003 8.644 15.671 9.226c3.931 6.179 6.239 8.849 6.925 8.01.578-.707.313-1.483.069-2.198-.191-.556-.369-1.076-.125-1.497.557-.962 3.703-.41 6.666.241 2.963.651 2.277-.802 1.647-1.561-2.801-2.256-6.394-4.319-10.778-6.187z" clip-rule="evenodd"/>
        <path fill="#A26620" fill-rule="evenodd" d="M94.513 109.177c6.756 18.318 18.153 33.233 35.428 49.501l-8.412 7.154c-20.301-10.955-30.931-17.338-34.221-34.209-.826-4.234.01-17.245.126-24.137l7.079 1.691z" clip-rule="evenodd"/>
        <path fill="#F2F2F2" fill-rule="evenodd" d="M60.958 162.327l40.561 5.701s-7.885-43.894-5.986-59.572c.065-.533-.787-1.608-1.24-1.546-4.96.674-10.07-2.442-10.07-2.442-11.786 14.087-17.782 32.626-23.265 57.859z" clip-rule="evenodd"/>
        <path fill="#EAB25F" fill-rule="evenodd" d="M91.085 129.448c2.524 28.017-.889 50.183-14.875 48.217l-21.627-3.04c-.197-23.525 13.32-54.206 23.955-69.145.406-.57 1.25-1.635 2.852-1.41l6.284.883.005.024c1.889.281 3.961.643 6.206 1.035 11.556 2.016 27.67 4.828 46.707 1.55l.642 11.015c-17.925 8.245-35.723 14.082-50.149 10.871z" clip-rule="evenodd"/>
        <path fill="#fff" d="M52.143 30.05c2.57.037 4.72.774 7.126 1.585.67.224 1.131-2.025.595-2.352-2.144-1.31-4.787-1.675-7.259-1.63-.811.022-1.147 2.397-.462 2.397zM59.785 22.086c1.608 1.682 2.813 3.537 4.101 5.446.57.837 1.053-1.297.818-1.797-.984-2.152-2.604-4.098-4.287-5.75-.504-.475-1.114 1.604-.632 2.101zM69.76 25.68c.474-1.501.964-2.987 1.477-4.464.183-.53.209-1.441-.362-1.819-.578-.37-1.103.234-1.265.712-.52 1.484-1.018 2.962-1.477 4.464-.175.539-.224 1.44.362 1.819.555.362 1.111-.226 1.265-.711z"/>
        <path fill="#FFDCB8" d="M77.185 52.733c-.287-.809-2.247-.84-4.394-.057-2.147.782-3.644 2.078-3.357 2.887.287.809 2.248.84 4.394.057 2.136-.793 3.644-2.078 3.357-2.887z"/>
        <path fill="#fff" fill-opacity=".24" d="M68.963 53.914c-.494-1.508-1.104-2.97-2.037-4.272-1.995-2.778-5.468-4.8-5.96-8.172-.36-2.433 1.062-4.81 2.976-6.33 2.318-1.851 5.52-2.702 8.385-1.865 2.876.849 5.23 3.525 5.315 6.513.06 2.5-1.34 4.832-1.408 7.345-.028 1.4.362 2.78.682 4.16l.083.429c-4.357 3.775-8.036 2.192-8.036 2.192z"/>
        <path fill="#FFE600" d="M72.148 43.307c-.817-.414-1.305.189-1.587.903-.46-.2-1.095-.431-1.6-.177-.552.278-.74 1.014-.787 1.561-.14 1.212.125 2.52.626 3.59.502 1.095 1.226 2.057 1.763 3.139.223.437.882.029.67-.42-.693-1.358-1.692-2.57-2.08-4.073-.216-.833-.38-1.899-.085-2.742.098-.28.218-.422.542-.382.244.03.486.13.693.218.023 0 .046.023.058.034-.026.117-.04.222-.053.327-.136.979-.107 2.454.657 3.171.342.319.864.366 1.231.022.415-.392.487-1.079.44-1.601-.098-.974-.628-1.789-1.42-2.32.051-.187.136-.363.243-.492.31-.379.726.299.861.529.438.77.653 1.649.845 2.505.15.648.346 1.295.403 1.968.055.742-.111 1.478-.265 2.201-.103.49.638.639.752.16.18-.84.348-1.716.261-2.585-.098-.905-.347-1.818-.562-2.697-.26-.948-.65-2.358-1.606-2.84zm-.667 2.582c.214.333.357.736.384 1.143.019.232-.047 1.21-.434.775-.239-.262-.3-.703-.351-1.039-.073-.451-.075-.905-.031-1.359.171.148.308.308.432.48zM74.075 55.723c-1.995.721-3.823.766-4.39.152l-.012.012 1.788 2.983c.241.686 1.895.7 3.668.061 1.785-.65 3.037-1.716 2.796-2.402-.011-.035-.022-.07-.046-.093l-.319-3.41-.011.011c-.04.804-1.49 1.953-3.474 2.686z"/>
        <path fill="#2F3676" d="M162.863 111.003l-2.809-4.204c-.147-.22-.463-.281-.685-.133l-5.388 3.6c.316.198.62.448.83.762.294.439.408.953.406 1.499-.023.514-.416 1.231-.859 1.527-.222.148-.465.265-.771.288-1.328.207-2.879.426-4.249.57l2.369 3.546c.147.219.463.28.685.132l10.395-6.946c.169-.159.223-.421.076-.641zM224.848 218.527h-13.63c-.776 0-1.441.732-1.441 1.585v16.221c0 .854.665 1.586 1.441 1.586h13.74c.776 0 1.441-.732 1.441-1.586v-16.221c-.111-.853-.776-1.585-1.551-1.585zM203.245 169.499h-38.578c-.826 0-1.534.689-1.534 1.493v15.284c0 .805.708 1.494 1.534 1.494h38.696c.826 0 1.534-.689 1.534-1.494v-15.398c-.118-.805-.826-1.379-1.652-1.379zM246.367 119.904h-37.373c-.8 0-1.486.788-1.486 1.708v17.467c0 .919.686 1.707 1.486 1.707h37.487c.8 0 1.486-.788 1.486-1.707V121.48c-.115-.919-.8-1.576-1.6-1.576zM164.49 144.702c-.731 0-1.357.739-1.357 1.601v16.375c0 .862.626 1.601 1.357 1.601h12.947c.731 0 1.357-.739 1.357-1.601v-16.375c0-.862-.626-1.601-1.357-1.601H164.49zM185.32 146.303v16.375c0 .862.691 1.601 1.496 1.601h38.773c.805 0 1.495-.739 1.495-1.601v-16.375c0-.862-.69-1.601-1.495-1.601h-38.773c-.805 0-1.496.739-1.496 1.601zM246.504 144.702h-12.842c-.731 0-1.357.739-1.357 1.601v16.375c0 .862.626 1.601 1.357 1.601h12.947c.731 0 1.357-.739 1.357-1.601v-16.375c-.104-.862-.731-1.601-1.462-1.601zM292.849 169.499H213.28c-1.703 0-3.163.689-3.163 1.493v15.284c0 .805 1.46 1.494 3.163 1.494h79.812c1.704 0 3.164-.689 3.164-1.494v-15.398c-.244-.805-1.704-1.379-3.407-1.379zM294.605 119.904h-38.579c-.826 0-1.534.788-1.534 1.708v17.467c0 .919.708 1.707 1.534 1.707h38.697c.825 0 1.533-.788 1.533-1.707V121.48c-.118-.919-.826-1.576-1.651-1.576zM254.492 146.303v16.375c0 .862.691 1.601 1.496 1.601h38.773c.805 0 1.495-.739 1.495-1.601v-16.375c0-.862-.69-1.601-1.495-1.601h-38.773c-.805 0-1.496.739-1.496 1.601zM164.49 194.295c-.731 0-1.357.689-1.357 1.494v15.284c0 .804.626 1.494 1.357 1.494h12.947c.731 0 1.357-.69 1.357-1.494v-15.284c0-.805-.626-1.494-1.357-1.494H164.49zM185.32 195.789v15.284c0 .804.691 1.494 1.496 1.494h38.773c.805 0 1.495-.69 1.495-1.494v-15.284c0-.805-.69-1.494-1.495-1.494h-38.773c-.805 0-1.496.689-1.496 1.494zM246.504 194.295h-12.842c-.731 0-1.357.689-1.357 1.494v15.284c0 .804.626 1.494 1.357 1.494h12.947c.731 0 1.357-.69 1.357-1.494v-15.284c-.104-.805-.731-1.494-1.462-1.494zM254.492 195.789v15.284c0 .804.691 1.494 1.496 1.494h38.773c.805 0 1.495-.69 1.495-1.494v-15.284c0-.805-.69-1.494-1.495-1.494h-38.773c-.805 0-1.496.689-1.496 1.494zM203.245 219.093h-38.578c-.826 0-1.534.689-1.534 1.494v15.284c0 .804.708 1.494 1.534 1.494h38.696c.826 0 1.534-.69 1.534-1.494v-15.399c-.118-.805-.826-1.379-1.652-1.379zM294.605 219.093h-38.579c-.826 0-1.534.689-1.534 1.494v15.284c0 .804.708 1.494 1.534 1.494h38.697c.825 0 1.533-.69 1.533-1.494v-15.399c-.118-.805-.826-1.379-1.651-1.379zM246.504 219.093h-12.842c-.731 0-1.357.689-1.357 1.494v15.284c0 .804.626 1.494 1.357 1.494h12.947c.731 0 1.357-.69 1.357-1.494v-15.284c-.104-.805-.731-1.494-1.462-1.494z"/>
    </g>
    <defs>
        <clipPath id="prefix__clip0">
            <path fill="#fff" d="M0 0H383V243H0z"/>
        </clipPath>
    </defs>
</svg>
