<svg xmlns="http://www.w3.org/2000/svg" width="56" height="56" fill="none" viewBox="0 0 56 56">
    <circle cx="28" cy="28" r="27" stroke="#C1C1C1" stroke-width="2"/>
    <path fill="#C1C1C1" stroke="#24272C" stroke-linecap="round" stroke-linejoin="round" stroke-width="1.5" d="M33 18H23c-2.761 0-5 2.239-5 5v10c0 2.761 2.239 5 5 5h10c2.761 0 5-2.239 5-5V23c0-2.761-2.239-5-5-5z"/>
    <path fill="#C1C1C1" stroke="#24272C" stroke-linecap="round" stroke-linejoin="round" stroke-width="1.5" d="M32 27.37c.123.832-.019 1.682-.407 2.43-.387.746-1 1.352-1.752 1.73-.751.378-1.603.51-2.434.376-.83-.133-1.598-.526-2.192-1.12-.595-.596-.988-1.363-1.121-2.194-.134-.83-.002-1.682.376-2.433.378-.752.984-1.365 1.73-1.752.748-.388 1.598-.53 2.43-.407.849.126 1.635.522 2.241 1.129.607.606 1.003 1.392 1.129 2.241z"/>
    <path stroke="#24272C" stroke-linecap="round" stroke-linejoin="round" stroke-width="1.5" d="M33.5 22.5h.01"/>
</svg>
