<svg xmlns="http://www.w3.org/2000/svg" width="128" height="122" fill="none" viewBox="0 0 128 122">
    <path fill="#FF8A00" d="M91.688 68.284c6.518 0 11.802-5.096 11.802-11.38 0-6.286-5.284-11.382-11.802-11.382s-11.801 5.096-11.801 11.381 5.283 11.38 11.801 11.38z"/>
    <path stroke="#fff" stroke-width="1.5" d="M89.114 97.579H26.175c.132-5.743 1.869-11.343 5.026-16.173l.06-.092.033.06.687-.964c2.906-4.078 6.758-7.405 11.231-9.702 4.474-2.296 9.438-3.495 14.477-3.495 5.038 0 10.003 1.199 14.476 3.495 4.474 2.297 8.325 5.624 11.231 9.702l5.716 17.169zm0 0c-.133-5.712-1.855-11.282-4.982-16.094-.239-.364-.484-.722-.734-1.075l5.716 17.169zM72.78 50.53c0 8.387-6.778 15.182-15.136 15.182-8.357 0-15.136-6.795-15.136-15.183 0-8.387 6.779-15.182 15.136-15.182 8.358 0 15.137 6.795 15.137 15.182z"/>
    <path stroke="#FF8A00" stroke-width="1.5" d="M114.528 90.294c-.194-5.56-2.539-10.856-6.582-14.808-4.225-4.13-9.96-6.453-15.942-6.453l22.524 21.261zm0 0H97.33c-1.61-7.792-5.6-14.915-11.43-20.435 1.984-.546 4.037-.825 6.103-.826l22.525 21.261z"/>
</svg>
