<svg xmlns="http://www.w3.org/2000/svg" width="56" height="56" fill="none" viewBox="0 0 56 56">
    <circle cx="28" cy="28" r="27" stroke="#C1C1C1" stroke-width="2"/>
    <path fill="#C1C1C1" stroke="#C1C1C1" stroke-linecap="round" stroke-linejoin="round" d="M32 23c1.591 0 3.117.632 4.243 1.757C37.368 25.883 38 27.41 38 29v7h-4v-7c0-.53-.21-1.04-.586-1.414C33.04 27.21 32.53 27 32 27c-.53 0-1.04.21-1.414.586C30.21 27.96 30 28.47 30 29v7h-4v-7c0-1.591.632-3.117 1.757-4.243C28.883 23.632 30.41 23 32 23zM22 24h-4v12h4V24zM20 21c1.105 0 2-.895 2-2s-.895-2-2-2-2 .895-2 2 .895 2 2 2z"/>
</svg>
