<svg xmlns="http://www.w3.org/2000/svg" width="56" height="56" fill="none" viewBox="0 0 56 56">
    <circle cx="28" cy="28" r="27" stroke="#C1C1C1" stroke-width="2"/>
    <path fill="#C1C1C1" stroke="#C1C1C1" stroke-linecap="round" stroke-linejoin="round" d="M39 18.998c-.958.676-2.018 1.192-3.14 1.53-.602-.692-1.403-1.183-2.293-1.406-.89-.223-1.828-.166-2.685.16-.857.328-1.594.91-2.109 1.67-.515.76-.785 1.659-.773 2.576v1c-1.757.046-3.499-.344-5.069-1.134-1.57-.79-2.92-1.957-3.931-3.396 0 0-4 9 5 13-2.06 1.398-4.513 2.1-7 2 9 5 20 0 20-11.5 0-.278-.028-.556-.08-.83 1.02-1.006 1.74-2.277 2.08-3.67z"/>
</svg>
